<svg width="12" height="12" viewBox="0 0 12 12" fill="none" xmlns="http://www.w3.org/2000/svg">
<g clip-path="url(#clip0_40000066_2325)">
<path d="M4.9875 4.48744C5.23223 4.24269 5.39888 3.93087 5.46639 3.59141C5.5339 3.25195 5.49923 2.90009 5.36677 2.58033C5.23431 2.26057 5.01001 1.98727 4.72223 1.79498C4.43445 1.6027 4.09611 1.50007 3.75 1.50007C3.40389 1.50007 3.06555 1.6027 2.77777 1.79498C2.48999 1.98727 2.26569 2.26057 2.13323 2.58033C2.00077 2.90009 1.9661 3.25195 2.03361 3.59141C2.10112 3.93087 2.26778 4.24269 2.5125 4.48744L3.75 5.72494L4.9875 4.48744ZM3.75 7.13894L1.805 5.19494C1.42054 4.8103 1.15875 4.32029 1.05275 3.78688C0.946743 3.25347 1.00128 2.7006 1.20946 2.19818C1.41763 1.69576 1.77011 1.26634 2.22232 0.964223C2.67452 0.662107 3.20616 0.500854 3.75 0.500854C4.29384 0.500854 4.82548 0.662107 5.27769 0.964223C5.72989 1.26634 6.08237 1.69576 6.29055 2.19818C6.49873 2.7006 6.55326 3.25347 6.44726 3.78688C6.34125 4.32029 6.07947 4.8103 5.695 5.19494L3.75 7.13994V7.13894ZM3.75 3.99994C3.55109 3.99994 3.36032 3.92092 3.21967 3.78027C3.07902 3.63962 3 3.44885 3 3.24994C3 3.05103 3.07902 2.86026 3.21967 2.71961C3.36032 2.57896 3.55109 2.49994 3.75 2.49994C3.94891 2.49994 4.13968 2.57896 4.28033 2.71961C4.42098 2.86026 4.5 3.05103 4.5 3.24994C4.5 3.44885 4.42098 3.63962 4.28033 3.78027C4.13968 3.92092 3.94891 3.99994 3.75 3.99994ZM8.25 10.2249L9.4875 8.98744C9.73223 8.74269 9.89888 8.43087 9.96639 8.09141C10.0339 7.75195 9.99923 7.40009 9.86677 7.08033C9.73431 6.76057 9.51001 6.48727 9.22223 6.29498C8.93445 6.1027 8.59611 6.00007 8.25 6.00007C7.90389 6.00007 7.56555 6.1027 7.27777 6.29498C6.98999 6.48727 6.76569 6.76057 6.63323 7.08033C6.50077 7.40009 6.4661 7.75195 6.53361 8.09141C6.60112 8.43087 6.76778 8.74269 7.0125 8.98744L8.25 10.2249ZM10.195 9.69494L8.25 11.6389L6.305 9.69444C5.92054 9.3098 5.65875 8.81979 5.55275 8.28638C5.44674 7.75297 5.50128 7.2001 5.70946 6.69768C5.91764 6.19526 6.27011 5.76584 6.72232 5.46372C7.17452 5.16161 7.70616 5.00035 8.25 5.00035C8.79385 5.00035 9.32548 5.16161 9.77769 5.46372C10.2299 5.76584 10.5824 6.19526 10.7905 6.69768C10.9987 7.2001 11.0533 7.75297 10.9473 8.28638C10.8413 8.81979 10.5795 9.3098 10.195 9.69444V9.69494ZM8.25 8.49994C8.05109 8.49994 7.86032 8.42092 7.71967 8.28027C7.57902 8.13962 7.5 7.94885 7.5 7.74994C7.5 7.55103 7.57902 7.36026 7.71967 7.21961C7.86032 7.07896 8.05109 6.99994 8.25 6.99994C8.44891 6.99994 8.63968 7.07896 8.78033 7.21961C8.92098 7.36026 9 7.55103 9 7.74994C9 7.94885 8.92098 8.13962 8.78033 8.28027C8.63968 8.42092 8.44891 8.49994 8.25 8.49994Z" fill="#999999"/>
</g>
<defs>
<clipPath id="clip0_40000066_2325">
<rect width="12" height="12" fill="white"/>
</clipPath>
</defs>
</svg>
